<svg width="114" height="214" viewBox="0 0 114 214" fill="none" xmlns="http://www.w3.org/2000/svg">
<path d="M0 197.466C0 193.33 4.08604 190.391 8.03953 191.605C19.5356 195.134 41.0427 201 57 201C72.9573 201 94.4644 195.134 105.96 191.605C109.914 190.391 114 193.33 114 197.466V197.748C114 200.295 112.406 202.556 109.982 203.339C100.288 206.469 75.0812 214 57 214C38.9188 214 13.712 206.469 4.01788 203.339C1.59361 202.556 0 200.295 0 197.748V197.466Z" fill="#B77C24"/>
<path d="M57 5L108.534 182.786C109.263 185.302 107.934 187.943 105.452 188.782C96.0302 191.964 73.3541 199 57 199C40.646 199 17.9698 191.964 8.54811 188.782C6.06581 187.943 4.7371 185.302 5.46655 182.786L57 5Z" fill="#E1C38A"/>
<circle cx="79.5" cy="169.5" r="13.5" fill="#A92626"/>
<circle cx="57.5" cy="107.5" r="13.5" fill="#A92626"/>
<circle cx="36.5" cy="154.5" r="13.5" fill="#A92626"/>
</svg>
