<svg width="114" height="214" viewBox="0 0 114 214" fill="none" xmlns="http://www.w3.org/2000/svg">
<mask id="mask0_12_48" style="mask-type:alpha" maskUnits="userSpaceOnUse" x="5" y="127" width="104" height="72">
<path d="M58.8047 127.828C58.8047 127.828 67.8911 131.846 76.4957 132.918C83.8419 133.833 93.768 131.846 93.768 131.846L108.534 182.786C109.263 185.302 107.934 187.943 105.452 188.782C96.0303 191.964 73.3541 199 57 199C40.646 199 17.9698 191.964 8.54811 188.782C6.06581 187.943 4.7371 185.302 5.46655 182.786L13.1905 156.139C13.1905 156.139 25.965 161.127 41.0732 153.39C53.8446 146.85 58.8047 127.828 58.8047 127.828Z" fill="white"/>
</mask>
<g mask="url(#mask0_12_48)">
<path d="M57 5.00006L108.534 182.786C109.263 185.302 107.934 187.943 105.452 188.782C96.0303 191.964 73.3541 199 57 199C40.646 199 17.9698 191.964 8.54811 188.782C6.06581 187.943 4.7371 185.302 5.46655 182.786L57 5.00006Z" fill="#E1C38A"/>
<circle cx="79.5" cy="164.5" r="13.5" fill="#A92626"/>
<circle cx="36.5" cy="149.5" r="13.5" fill="#A92626"/>
</g>
<path d="M0 197.466C0 193.33 4.08604 190.391 8.03953 191.605C19.5356 195.134 41.0427 201 57 201C72.9573 201 94.4644 195.134 105.96 191.605C109.914 190.391 114 193.33 114 197.466V197.748C114 200.295 112.406 202.556 109.982 203.339C100.288 206.469 75.0812 214 57 214C38.9188 214 13.712 206.469 4.01788 203.339C1.59361 202.556 0 200.295 0 197.748V197.466Z" fill="#B77C24"/>
</svg>
