<svg width="114" height="214" viewBox="0 0 114 214" fill="none" xmlns="http://www.w3.org/2000/svg">
<path d="M0 197.466C0 193.33 4.08604 190.391 8.03953 191.605C19.5356 195.134 41.0427 201 57 201C72.9573 201 94.4644 195.134 105.96 191.605C109.914 190.391 114 193.33 114 197.466V197.748C114 200.295 112.406 202.556 109.982 203.339C100.288 206.469 75.0812 214 57 214C38.9188 214 13.712 206.469 4.01788 203.339C1.59361 202.556 0 200.295 0 197.748V197.466Z" fill="#B77C24"/>
<circle cx="97" cy="190" r="1" fill="#E1C38A"/>
<ellipse cx="94" cy="189.5" rx="1" ry="0.5" fill="#E1C38A"/>
<ellipse cx="91" cy="191.5" rx="1" ry="1.5" fill="#E1C38A"/>
<circle cx="91" cy="187" r="1" fill="#E1C38A"/>
<circle cx="89.5" cy="188.5" r="0.5" fill="#E1C38A"/>
</svg>
