<svg width="344" height="347" viewBox="0 0 344 347" fill="none" xmlns="http://www.w3.org/2000/svg">
<path d="M158.69 150.42L85.6085 78.9227C83.7486 77.1031 83.6003 74.0509 85.3419 72.0145C89.5349 67.1116 97.3525 58.5334 104.223 54.1263C111.078 49.7295 121.7 46.4624 127.664 44.8511C130.163 44.1761 132.619 45.7377 133.263 48.3247L158.69 150.42Z" fill="#F5CB7A"/>
<path d="M131.135 37.269C132.332 39.3767 131.152 42.1692 128.848 42.7901C122.385 44.5324 110.765 48.0913 103.325 52.8638C95.8849 57.6364 87.5061 66.9051 83.0428 72.1719C81.4521 74.049 78.5783 73.8568 77.3821 71.7491C76.6526 70.4636 76.7795 68.8227 77.733 67.6628C81.458 63.1313 91.1661 51.8371 99.6529 46.3932C108.14 40.9494 122.064 37.0845 127.572 35.6938C128.981 35.3378 130.406 35.9835 131.135 37.269Z" fill="#B77C24"/>
<path fill-rule="evenodd" clip-rule="evenodd" d="M129.289 44.7723C122.815 46.5173 111.466 50.0143 104.312 54.6032C97.1583 59.1922 88.9571 68.2354 84.4868 73.5105C82.0404 76.3973 77.583 76.1492 75.6987 72.8289C74.5569 70.817 74.7402 68.208 76.2689 66.3483C79.973 61.8422 89.8711 50.2952 98.6658 44.6538C107.461 39.0125 121.684 35.0868 127.16 33.7039C129.421 33.1332 131.677 34.1773 132.819 36.1891C134.703 39.5094 132.831 43.8174 129.289 44.7723ZM128.848 42.7901C131.152 42.1692 132.332 39.3767 131.135 37.269C130.406 35.9835 128.981 35.3378 127.572 35.6938C122.064 37.0845 108.14 40.9494 99.6529 46.3932C91.1661 51.8371 81.458 63.1313 77.733 67.6628C76.7795 68.8227 76.6526 70.4636 77.3821 71.7491C78.5783 73.8568 81.4521 74.049 83.0428 72.1719C87.5061 66.9051 95.8849 57.6364 103.325 52.8638C110.765 48.0913 122.385 44.5324 128.848 42.7901Z" fill="#B77C24"/>
<path d="M95.2484 79.431C93.1423 75.72 94.2849 70.8835 97.8005 68.6284C101.316 66.3733 105.873 67.5536 107.979 71.2647C110.086 74.9757 108.943 79.8122 105.427 82.0673C101.912 84.3224 97.3545 83.1421 95.2484 79.431Z" fill="#A92626"/>
<path d="M123.135 103.637C121.029 99.9257 122.172 95.0891 125.687 92.8341C129.203 90.579 133.76 91.7593 135.866 95.4704C137.972 99.1814 136.83 104.018 133.314 106.273C129.799 108.528 125.241 107.348 123.135 103.637Z" fill="#A92626"/>
<path d="M119.761 73.8914C117.655 70.1804 118.797 65.3439 122.313 63.0888C125.829 60.8337 130.386 62.014 132.492 65.7251C134.598 69.4361 133.455 74.2727 129.94 76.5277C126.424 78.7828 121.867 77.6025 119.761 73.8914Z" fill="#A92626"/>
<path d="M174.351 171.616L151.044 68.7922C150.47 66.2584 151.934 63.7135 154.442 63.031C160.475 61.3898 171.46 58.7918 179.472 59.1356C187.466 59.4786 198.003 62.9862 203.786 65.1354C206.211 66.0366 207.432 68.6875 206.64 71.1519L174.351 171.616Z" fill="#F5CB7A"/>
<path d="M210.6 60.7773C210.491 63.2488 207.941 64.883 205.622 64.0235C199.311 61.684 187.962 57.921 179.387 57.5531C170.812 57.1852 159.174 59.9618 152.68 61.7518C150.294 62.4094 147.898 60.5631 148.007 58.0916C148.073 56.6106 149.047 55.3287 150.47 54.9105C155.953 53.2988 169.862 49.5647 179.721 49.9877C189.58 50.4108 203.107 55.322 208.427 57.3974C209.808 57.9358 210.665 59.2963 210.6 60.7773Z" fill="#B77C24"/>
<path fill-rule="evenodd" clip-rule="evenodd" d="M204.925 65.8988C198.604 63.5556 187.523 59.9041 179.299 59.5512C171.074 59.1983 159.714 61.8869 153.209 63.6798C149.563 64.6849 145.838 61.882 146.009 58.0059C146.111 55.6981 147.637 53.6593 149.908 52.9919C155.358 51.3898 169.572 47.5504 179.809 47.9897C190.046 48.4289 203.868 53.4712 209.156 55.5341C211.359 56.3934 212.7 58.5553 212.598 60.863C212.427 64.7392 208.469 67.2124 204.925 65.8988ZM205.622 64.0235C207.941 64.883 210.491 63.2488 210.6 60.7773C210.665 59.2963 209.808 57.9358 208.427 57.3974C203.107 55.322 189.58 50.4108 179.721 49.9877C169.862 49.5647 155.953 53.2988 150.47 54.9105C149.047 55.3287 148.073 56.6106 148.007 58.0916C147.898 60.5631 150.294 62.4094 152.68 61.7518C159.174 59.9618 170.812 57.1852 179.387 57.5531C187.962 57.921 199.311 61.684 205.622 64.0235Z" fill="#B77C24"/>
<path d="M158.811 75.0365C159.003 70.6975 162.477 67.3225 166.571 67.4982C170.664 67.6738 173.827 71.3336 173.636 75.6725C173.444 80.0115 169.971 83.3865 165.877 83.2109C161.783 83.0352 158.62 79.3754 158.811 75.0365Z" fill="#A92626"/>
<path d="M169.298 111.636C169.489 107.297 172.963 103.922 177.057 104.097C181.151 104.273 184.314 107.933 184.122 112.272C183.931 116.611 180.457 119.986 176.363 119.81C172.27 119.635 169.106 115.975 169.298 111.636Z" fill="#A92626"/>
<path d="M182.036 84.7788C182.227 80.4398 185.701 77.0648 189.795 77.2405C193.888 77.4161 197.052 81.0759 196.86 85.4149C196.669 89.7538 193.195 93.1288 189.101 92.9532C185.007 92.7775 181.844 89.1177 182.036 84.7788Z" fill="#A92626"/>
<path d="M175.948 176.001L127.174 268.741C125.968 271.033 126.727 273.897 128.972 275.244C134.37 278.482 144.296 284 152.108 285.867C159.904 287.729 170.96 287.239 177.086 286.753C179.654 286.549 181.513 284.32 181.379 281.719L175.948 176.001Z" fill="#F5CB7A"/>
<path d="M182.545 292.821C183.072 290.409 181.041 288.135 178.593 288.327C171.912 288.852 159.991 289.369 151.621 287.369C143.251 285.369 132.728 279.49 126.927 275.983C124.802 274.698 122.029 275.823 121.502 278.236C121.186 279.684 121.796 281.188 123.058 281.981C127.931 285.038 140.391 292.458 150.008 294.756C159.625 297.054 173.929 296.029 179.588 295.487C181.054 295.347 182.228 294.269 182.545 292.821Z" fill="#B77C24"/>
<path fill-rule="evenodd" clip-rule="evenodd" d="M178.404 286.325C171.712 286.85 160.078 287.334 152.048 285.415C144.018 283.496 133.739 277.777 127.929 274.265C124.679 272.3 120.384 273.986 119.557 277.771C119.064 280.028 120.012 282.416 122.028 283.681C126.872 286.72 139.597 294.324 149.581 296.71C159.565 299.095 174.185 298.025 179.81 297.487C182.152 297.263 183.997 295.543 184.49 293.286C185.317 289.5 182.147 286.031 178.404 286.325ZM178.593 288.327C181.041 288.135 183.072 290.409 182.545 292.821C182.228 294.269 181.054 295.347 179.588 295.487C173.929 296.029 159.625 297.054 150.008 294.756C140.391 292.458 127.931 285.038 123.058 281.981C121.796 281.188 121.186 279.684 121.502 278.236C122.029 275.823 124.802 274.698 126.927 275.983C132.728 279.49 143.251 285.369 151.621 287.369C159.991 289.369 171.912 288.852 178.593 288.327Z" fill="#B77C24"/>
<path d="M136.254 264.865C135.329 269.101 137.815 273.309 141.807 274.263C145.8 275.217 149.786 272.556 150.712 268.319C151.637 264.083 149.151 259.875 145.159 258.921C141.166 257.967 137.18 260.629 136.254 264.865Z" fill="#A92626"/>
<path d="M155.73 232.451C154.804 236.687 157.29 240.895 161.283 241.849C165.275 242.803 169.262 240.142 170.187 235.905C171.112 231.669 168.626 227.461 164.634 226.507C160.642 225.554 156.655 228.215 155.73 232.451Z" fill="#A92626"/>
<path d="M161.141 261.843C160.215 266.08 162.702 270.287 166.694 271.241C170.686 272.195 174.673 269.534 175.598 265.298C176.524 261.061 174.038 256.854 170.045 255.9C166.053 254.946 162.066 257.607 161.141 261.843Z" fill="#A92626"/>
<path d="M173.389 173.411L84.9332 222.744C82.647 224.019 81.7062 226.96 82.8766 229.395C85.6957 235.26 91.0863 245.636 96.6097 251.736C102.12 257.822 111.547 263.831 116.903 266.994C119.147 268.318 121.943 267.44 123.234 265.08L173.389 173.411Z" fill="#F5CB7A"/>
<path d="M118.376 275.243C120.058 273.532 119.659 270.557 117.626 269.359C111.838 265.952 101.441 259.357 95.4256 252.714C89.4105 246.071 83.6206 234.789 80.6463 228.52C79.6012 226.317 76.8131 225.772 75.1311 227.483C74.0969 228.535 73.7981 230.154 74.4217 231.518C76.8739 236.884 83.4189 250.424 90.2546 257.974C97.0902 265.523 109.586 273.011 114.543 275.828C115.804 276.544 117.342 276.295 118.376 275.243Z" fill="#B77C24"/>
<path fill-rule="evenodd" clip-rule="evenodd" d="M118.572 267.561C112.775 264.148 102.618 257.682 96.8277 251.288C91.0376 244.893 85.36 233.871 82.3809 227.592C80.7681 224.192 76.443 223.3 73.7887 226C72.1664 227.65 71.6723 230.226 72.6743 232.418C75.1132 237.755 81.7753 251.584 88.8525 259.4C95.9296 267.216 108.692 274.839 113.623 277.641C115.648 278.793 118.097 278.375 119.719 276.725C122.373 274.025 121.71 269.408 118.572 267.561ZM117.626 269.359C119.659 270.557 120.058 273.532 118.376 275.243C117.342 276.295 115.804 276.544 114.543 275.828C109.586 273.011 97.0902 265.523 90.2546 257.974C83.4189 250.424 76.8739 236.884 74.4217 231.518C73.7981 230.154 74.0969 228.535 75.1311 227.483C76.8131 225.772 79.6012 226.317 80.6463 228.52C83.6206 234.789 89.4105 246.071 95.4256 252.714C101.441 259.357 111.838 265.952 117.626 269.359Z" fill="#B77C24"/>
<path d="M94.2989 224.887C91.3331 227.903 91.2218 232.881 94.0501 236.005C96.8785 239.128 101.575 239.215 104.541 236.198C107.507 233.181 107.618 228.204 104.79 225.08C101.962 221.957 97.2646 221.87 94.2989 224.887Z" fill="#A92626"/>
<path d="M127.306 209.018C124.341 212.034 124.229 217.012 127.058 220.136C129.886 223.259 134.583 223.346 137.549 220.329C140.514 217.313 140.626 212.335 137.797 209.211C134.969 206.088 130.272 206.001 127.306 209.018Z" fill="#A92626"/>
<path d="M116.577 236.832C113.612 239.849 113.5 244.827 116.329 247.95C119.157 251.074 123.854 251.16 126.82 248.144C129.785 245.127 129.897 240.149 127.068 237.026C124.24 233.902 119.543 233.815 116.577 236.832Z" fill="#A92626"/>
<path d="M174.528 173.772L253.239 108.242C255.237 106.579 255.63 103.554 254.061 101.388C250.283 96.1711 243.192 87.0043 236.704 82.0706C230.231 77.1484 219.908 73.0563 214.095 70.9815C211.66 70.1123 209.089 71.4695 208.237 73.9911L174.528 173.772Z" fill="#F5CB7A"/>
<path d="M211.26 63.1489C209.895 65.1563 210.85 68.0379 213.102 68.8406C219.406 71.0872 230.683 75.5452 237.702 80.8829C244.722 86.2205 252.308 96.1059 256.328 101.709C257.765 103.711 260.652 103.752 262.017 101.744C262.849 100.522 262.855 98.8765 261.998 97.6434C258.655 92.8318 249.905 80.8143 241.892 74.7218C233.88 68.6294 220.321 63.683 214.943 61.8629C213.565 61.3965 212.092 61.9264 211.26 63.1489Z" fill="#B77C24"/>
<path fill-rule="evenodd" clip-rule="evenodd" d="M212.505 70.7805C218.818 73.0306 229.829 77.4053 236.578 82.5366C243.326 87.6679 250.753 97.3138 254.779 102.926C256.987 106.003 261.459 106.116 263.609 102.955C264.91 101.042 264.939 98.4287 263.566 96.4526C260.241 91.6681 251.321 79.3825 243.017 73.0681C234.713 66.7536 220.859 61.7227 215.512 59.9129C213.303 59.1654 210.969 60.0257 209.668 61.9384C207.518 65.0997 209.043 69.5468 212.505 70.7805ZM213.102 68.8406C210.85 68.0379 209.895 65.1563 211.26 63.1489C212.092 61.9264 213.565 61.3965 214.943 61.8629C220.321 63.683 233.88 68.6294 241.892 74.7218C249.905 80.8143 258.655 92.8318 261.998 97.6434C262.855 98.8765 262.849 100.522 262.017 101.744C260.652 103.752 257.765 103.711 256.328 101.709C252.308 96.1059 244.722 86.2205 237.702 80.8829C230.683 75.5452 219.406 71.0872 213.102 68.8406Z" fill="#B77C24"/>
<path d="M243.578 107.999C245.981 104.466 245.238 99.5551 241.919 97.0309C238.599 94.5067 233.96 95.3249 231.557 98.8584C229.153 102.392 229.896 107.303 233.216 109.827C236.536 112.351 241.175 111.533 243.578 107.999Z" fill="#A92626"/>
<path d="M213.799 129.934C216.202 126.401 215.459 121.49 212.14 118.966C208.82 116.442 204.181 117.26 201.778 120.793C199.375 124.327 200.118 129.238 203.437 131.762C206.757 134.286 211.396 133.468 213.799 129.934Z" fill="#A92626"/>
<path d="M219.598 100.55C222.001 97.0169 221.258 92.1061 217.939 89.5819C214.619 87.0577 209.98 87.8759 207.577 91.4094C205.173 94.9429 205.916 99.8536 209.236 102.378C212.556 104.902 217.195 104.084 219.598 100.55Z" fill="#A92626"/>
<path d="M175.94 176.206L232.316 263.006C233.727 265.178 233.223 268.144 231.102 269.729C226.002 273.539 216.6 280.102 208.988 282.809C201.394 285.511 190.36 286.233 184.219 286.421C181.643 286.499 179.592 284.452 179.503 281.82L175.94 176.206Z" fill="#F5CB7A"/>
<path d="M178.096 293.101C177.367 290.763 179.157 288.294 181.576 288.22C188.256 288.014 200.223 287.23 208.414 284.316C216.605 281.402 226.624 274.365 232.086 270.251C234.064 268.761 236.882 269.591 237.61 271.929C238.05 273.342 237.577 274.908 236.396 275.828C231.814 279.394 220.031 288.144 210.647 291.482C201.262 294.82 186.922 295.363 181.255 295.443C179.793 295.464 178.536 294.514 178.096 293.101Z" fill="#B77C24"/>
<path fill-rule="evenodd" clip-rule="evenodd" d="M181.58 286.197C188.27 285.991 199.953 285.205 207.819 282.406C215.685 279.608 225.478 272.755 230.949 268.634C233.979 266.352 238.349 267.581 239.495 271.259C240.182 273.465 239.449 275.954 237.559 277.425C233.004 280.97 220.977 289.928 211.242 293.391C201.506 296.855 186.854 297.387 181.219 297.467C178.881 297.5 176.899 295.977 176.211 293.771C175.066 290.094 177.873 286.311 181.58 286.197ZM181.576 288.22C179.157 288.294 177.367 290.763 178.096 293.101C178.536 294.514 179.793 295.464 181.255 295.443C186.922 295.363 201.262 294.82 210.647 291.482C220.031 288.144 231.814 279.394 236.396 275.828C237.577 274.908 238.05 273.342 237.61 271.929C236.882 269.591 234.064 268.761 232.086 270.251C226.624 274.365 216.605 281.402 208.414 284.316C200.223 287.23 188.256 288.014 181.576 288.22Z" fill="#B77C24"/>
<path d="M221.798 260.266C223.079 264.376 220.961 268.83 217.069 270.215C213.177 271.6 208.983 269.39 207.703 265.28C206.422 261.17 208.54 256.716 212.432 255.331C216.324 253.947 220.518 256.156 221.798 260.266Z" fill="#A92626"/>
<path d="M199.665 230.175C200.946 234.285 198.828 238.739 194.936 240.124C191.043 241.508 186.85 239.299 185.57 235.189C184.289 231.079 186.406 226.625 190.299 225.24C194.191 223.855 198.385 226.065 199.665 230.175Z" fill="#A92626"/>
<path d="M196.774 259.983C198.054 264.093 195.937 268.547 192.044 269.932C188.152 271.317 183.959 269.107 182.678 264.998C181.398 260.888 183.515 256.433 187.407 255.049C191.3 253.664 195.493 255.873 196.774 259.983Z" fill="#A92626"/>
<path d="M173.658 172.707L75.3031 157.539C72.6534 157.131 70.7578 154.629 71.1216 151.913C71.9988 145.367 73.9256 133.687 77.2754 125.983C80.6175 118.296 87.6663 109.297 91.7645 104.403C93.4797 102.355 96.5008 102.244 98.5168 104.085L173.658 172.707Z" fill="#F5CB7A"/>
<path d="M90.7101 96.0815C92.812 97.0964 93.4024 99.9211 91.9151 101.687C87.5197 106.906 79.5605 116.967 75.8592 125.48C72.158 133.993 70.1243 146.915 69.2437 153.832C68.9457 156.172 66.5302 157.545 64.4283 156.53C63.1084 155.893 62.3099 154.478 62.4781 153.006C63.1519 147.108 65.2051 131.933 69.3726 122.348C73.54 112.762 83.1054 101.215 86.9039 96.8259C87.8523 95.7302 89.3902 95.4441 90.7101 96.0815Z" fill="#B77C24"/>
<path fill-rule="evenodd" clip-rule="evenodd" d="M93.4169 103.04C89.0145 108.267 81.2329 118.132 77.6602 126.35C74.0876 134.567 72.0788 147.22 71.1967 154.147C70.7327 157.791 66.9675 159.975 63.6309 158.364C61.547 157.358 60.2497 155.099 60.5219 152.717C61.1923 146.849 63.2668 131.379 67.5716 121.478C71.8763 111.577 81.6396 99.8198 85.4191 95.453C86.9531 93.6806 89.4237 93.241 91.5076 94.2473C94.8442 95.8586 95.7327 100.29 93.4169 103.04ZM91.9151 101.687C93.4024 99.9211 92.812 97.0964 90.7101 96.0815C89.3902 95.4441 87.8523 95.7302 86.9039 96.8259C83.1054 101.215 73.54 112.762 69.3726 122.348C65.2051 131.933 63.1519 147.108 62.4781 153.006C62.3099 154.478 63.1084 155.893 64.4283 156.53C66.5302 157.545 68.9457 156.172 69.2437 153.832C70.1243 146.915 72.158 133.993 75.8592 125.48C79.5605 116.967 87.5197 106.906 91.9151 101.687Z" fill="#B77C24"/>
<path d="M83.2774 152.159C79.5571 150.362 77.9347 145.701 79.6535 141.748C81.3724 137.794 85.7817 136.046 89.502 137.842C93.2223 139.639 94.8447 144.3 93.1258 148.253C91.407 152.207 86.9977 153.955 83.2774 152.159Z" fill="#A92626"/>
<path d="M119.286 155.432C115.565 153.636 113.943 148.975 115.662 145.021C117.381 141.068 121.79 139.319 125.51 141.116C129.231 142.912 130.853 147.574 129.134 151.527C127.415 155.48 123.006 157.229 119.286 155.432Z" fill="#A92626"/>
<path d="M100.675 132.973C96.955 131.176 95.3326 126.515 97.0515 122.561C98.7703 118.608 103.18 116.859 106.9 118.656C110.62 120.452 112.243 125.114 110.524 129.067C108.805 133.02 104.396 134.769 100.675 132.973Z" fill="#A92626"/>
<path d="M173.623 173.087L74.8947 161.23C72.2106 160.907 69.7236 162.817 69.3921 165.537C68.5924 172.096 67.5169 183.885 68.8128 192.223C70.1057 200.542 74.6445 211.124 77.3708 216.956C78.5117 219.396 81.4283 220.313 83.8588 219.068L173.623 173.087Z" fill="#F5CB7A"/>
<path d="M74.2737 224.712C76.5564 224.299 77.8421 221.759 76.8597 219.675C73.9325 213.465 68.7552 201.568 67.3189 192.327C65.8827 183.086 67.1799 170.017 68.0693 163.116C68.3678 160.8 66.3846 158.852 64.1019 159.265C62.662 159.526 61.531 160.673 61.3241 162.132C60.4922 167.999 58.6541 183.218 60.2681 193.603C61.8822 203.988 68.2211 217.728 70.7813 222.981C71.4179 224.287 72.8338 224.973 74.2737 224.712Z" fill="#B77C24"/>
<path fill-rule="evenodd" clip-rule="evenodd" d="M78.6625 218.779C75.7307 212.559 70.6741 200.896 69.287 191.971C67.8998 183.046 69.1536 170.241 70.0444 163.329C70.5101 159.716 67.4241 156.632 63.7948 157.289C61.5181 157.701 59.6876 159.53 59.3524 161.894C58.5246 167.732 56.6337 183.237 58.3001 193.959C59.9665 204.681 66.4419 218.673 68.9895 223.9C70.0208 226.016 72.3042 227.101 74.5809 226.689C78.2102 226.032 80.195 222.03 78.6625 218.779ZM76.8597 219.675C77.8421 221.759 76.5564 224.299 74.2737 224.712C72.8338 224.973 71.4179 224.287 70.7813 222.981C68.2211 217.728 61.8822 203.988 60.2681 193.603C58.6541 183.218 60.4922 167.999 61.3241 162.132C61.531 160.673 62.662 159.526 64.1019 159.265C66.3846 158.852 68.3678 160.8 68.0693 163.116C67.1799 170.017 65.8827 183.086 67.3189 192.327C68.7552 201.568 73.9325 213.465 76.8597 219.675Z" fill="#B77C24"/>
<path d="M81.1914 168.567C77.1475 169.299 74.4087 173.363 75.0739 177.643C75.7392 181.923 79.5566 184.8 83.6005 184.068C87.6443 183.336 90.3831 179.273 89.7179 174.993C89.0526 170.712 85.2352 167.836 81.1914 168.567Z" fill="#A92626"/>
<path d="M116.781 175.112C112.737 175.843 109.999 179.907 110.664 184.187C111.329 188.467 115.146 191.344 119.19 190.612C123.234 189.88 125.973 185.817 125.308 181.537C124.642 177.256 120.825 174.38 116.781 175.112Z" fill="#A92626"/>
<path d="M93.1636 191.781C89.1198 192.513 86.3809 196.576 87.0462 200.857C87.7114 205.137 91.5289 208.014 95.5727 207.282C99.6165 206.55 102.355 202.487 101.69 198.206C101.025 193.926 97.2074 191.049 93.1636 191.781Z" fill="#A92626"/>
<path d="M175.672 178.349L254.883 114.012C257.008 112.285 260.021 112.578 261.605 114.733C265.426 119.927 271.99 129.473 274.863 137.352C277.729 145.213 278.886 156.801 279.33 163.303C279.516 166.025 277.485 168.395 274.834 168.654L175.672 178.349Z" fill="#F5CB7A"/>
<path d="M285.711 168.252C283.549 169.149 281.218 167.633 281.063 165.27C280.606 158.312 279.366 145.317 276.196 136.623C273.026 127.928 265.708 117.457 261.637 111.998C260.255 110.145 261.013 107.347 263.174 106.449C264.529 105.887 266.046 106.26 266.927 107.409C270.453 112.004 279.291 124.058 282.864 133.855C286.436 143.652 287.557 158.91 287.869 164.838C287.947 166.321 287.065 167.689 285.711 168.252Z" fill="#B77C24"/>
<path fill-rule="evenodd" clip-rule="evenodd" d="M279.098 165.472C278.64 158.502 277.408 145.78 274.349 137.389C271.289 128.999 264.138 118.734 260.061 113.267C257.91 110.383 259.06 105.994 262.489 104.57C264.627 103.683 267.063 104.262 268.488 106.12C271.996 110.691 281.02 122.967 284.711 133.088C288.402 143.21 289.526 158.765 289.836 164.663C289.962 167.06 288.533 169.244 286.396 170.131C282.967 171.554 279.339 169.148 279.098 165.472ZM281.063 165.27C281.218 167.633 283.549 169.149 285.711 168.252C287.065 167.689 287.947 166.321 287.869 164.838C287.557 158.91 286.436 143.652 282.864 133.855C279.291 124.058 270.453 112.004 266.927 107.409C266.046 106.26 264.529 105.887 263.174 106.449C261.013 107.347 260.255 110.145 261.637 111.998C265.708 117.457 273.026 127.928 276.196 136.623C279.366 145.317 280.606 158.312 281.063 165.27Z" fill="#B77C24"/>
<path d="M252.924 123.812C256.748 122.225 261.042 124.215 262.516 128.257C263.99 132.299 262.085 136.862 258.261 138.45C254.437 140.037 250.143 138.047 248.669 134.005C247.195 129.963 249.1 125.399 252.924 123.812Z" fill="#A92626"/>
<path d="M225.474 148.938C229.298 147.351 233.593 149.341 235.067 153.383C236.541 157.425 234.636 161.988 230.812 163.576C226.988 165.163 222.693 163.173 221.219 159.131C219.745 155.089 221.65 150.526 225.474 148.938Z" fill="#A92626"/>
<path d="M253.731 150.317C257.555 148.73 261.85 150.72 263.324 154.762C264.798 158.804 262.893 163.367 259.069 164.954C255.245 166.542 250.95 164.552 249.476 160.51C248.002 156.468 249.907 151.904 253.731 150.317Z" fill="#A92626"/>
<path d="M175.804 176.058L229.686 264.48C231.101 266.803 233.983 267.539 236.171 266.065C241.444 262.513 250.723 255.813 255.979 249.391C261.223 242.985 266.06 232.461 268.576 226.496C269.629 223.999 268.529 221.101 266.165 219.952L175.804 176.058Z" fill="#F5CB7A"/>
<path d="M275.431 223.714C273.682 222.11 270.954 222.777 270.021 225C267.327 231.421 261.994 243.12 256.237 250.154C250.479 257.187 240.299 264.44 234.679 268.177C232.734 269.471 232.497 272.424 234.246 274.029C235.331 275.024 236.879 275.191 238.096 274.407C242.916 271.302 255.104 263.057 261.622 255.094C268.14 247.131 274.114 233.187 276.332 227.694C276.892 226.307 276.516 224.709 275.431 223.714Z" fill="#B77C24"/>
<path fill-rule="evenodd" clip-rule="evenodd" d="M268.244 224.154C265.545 230.585 260.311 242.024 254.763 248.802C249.215 255.58 239.264 262.692 233.635 266.435C230.622 268.439 230.214 273.039 232.98 275.577C234.685 277.141 237.156 277.427 239.117 276.164C243.912 273.075 256.354 264.683 263.096 256.446C269.838 248.21 275.914 233.978 278.12 228.514C279.022 226.28 278.403 223.731 276.698 222.166C273.932 219.629 269.689 220.711 268.244 224.154ZM270.021 225C270.954 222.777 273.682 222.11 275.431 223.714C276.516 224.709 276.892 226.307 276.332 227.694C274.114 233.187 268.14 247.131 261.622 255.094C255.104 263.057 242.916 271.302 238.096 274.407C236.879 275.191 235.331 275.024 234.246 274.029C232.497 272.424 232.734 269.471 234.679 268.177C240.299 264.44 250.479 257.187 256.237 250.154C261.994 243.12 267.327 231.421 270.021 225Z" fill="#B77C24"/>
<path d="M230.182 254.072C233.27 256.905 237.958 256.534 240.651 253.244C243.345 249.953 243.025 244.988 239.936 242.155C236.847 239.321 232.16 239.692 229.466 242.983C226.773 246.274 227.093 251.238 230.182 254.072Z" fill="#A92626"/>
<path d="M212.446 220.8C215.534 223.633 220.222 223.262 222.915 219.972C225.609 216.681 225.288 211.716 222.2 208.883C219.111 206.05 214.424 206.42 211.73 209.711C209.037 213.002 209.357 217.966 212.446 220.8Z" fill="#A92626"/>
<path d="M239.502 229.393C242.591 232.226 247.278 231.856 249.972 228.565C252.666 225.274 252.345 220.31 249.257 217.476C246.168 214.643 241.481 215.013 238.787 218.304C236.093 221.595 236.414 226.559 239.502 229.393Z" fill="#A92626"/>
<path d="M175.737 176.304L263.99 224.215C266.396 225.521 269.362 224.657 270.574 222.229C273.498 216.371 278.414 205.712 279.971 197.407C281.524 189.121 280.798 177.502 280.188 171.013C279.932 168.298 277.504 166.349 274.813 166.612L175.737 176.304Z" fill="#F5CB7A"/>
<path d="M285.179 164.485C282.911 164.022 280.869 165.917 281.094 168.231C281.767 175.144 282.656 188.251 280.929 197.465C279.202 206.68 273.645 218.471 270.525 224.611C269.481 226.666 270.688 229.224 272.957 229.687C274.389 229.979 275.827 229.326 276.504 228.036C279.227 222.844 285.997 209.244 287.937 198.896C289.877 188.547 288.516 173.288 287.869 167.408C287.708 165.948 286.612 164.777 285.179 164.485Z" fill="#B77C24"/>
<path fill-rule="evenodd" clip-rule="evenodd" d="M279.109 168.397C279.783 175.321 280.638 188.165 278.969 197.066C277.301 205.966 271.871 217.528 268.747 223.677C267.117 226.885 268.98 230.916 272.588 231.652C274.855 232.115 277.174 231.083 278.27 228.993C280.98 223.826 287.894 209.978 289.897 199.295C291.899 188.613 290.495 173.067 289.851 167.216C289.59 164.85 287.814 162.982 285.548 162.519C281.939 161.783 278.758 164.785 279.109 168.397ZM281.094 168.231C280.869 165.917 282.911 164.022 285.179 164.485C286.612 164.777 287.708 165.948 287.869 167.408C288.516 173.288 289.877 188.547 287.937 198.896C285.997 209.244 279.227 222.844 276.504 228.036C275.827 229.326 274.389 229.979 272.957 229.687C270.688 229.224 269.481 226.666 270.525 224.611C273.645 218.471 279.202 206.68 280.929 197.465C282.656 188.251 281.767 175.144 281.094 168.231Z" fill="#B77C24"/>
<path d="M260.087 214.59C264.107 215.41 268.013 212.618 268.813 208.354C269.612 204.09 267.002 199.968 262.982 199.148C258.963 198.327 255.056 201.12 254.257 205.384C253.458 209.648 256.068 213.77 260.087 214.59Z" fill="#A92626"/>
<path d="M229.022 195.187C233.041 196.007 236.948 193.215 237.747 188.951C238.547 184.686 235.936 180.565 231.917 179.744C227.897 178.924 223.991 181.716 223.191 185.981C222.392 190.245 225.002 194.367 229.022 195.187Z" fill="#A92626"/>
<path d="M256.611 188.346C260.631 189.167 264.537 186.375 265.336 182.11C266.136 177.846 263.525 173.724 259.506 172.904C255.486 172.084 251.58 174.876 250.781 179.14C249.981 183.404 252.592 187.526 256.611 188.346Z" fill="#A92626"/>
<path d="M185.905 207.372C185.905 207.372 177.667 205.37 174.368 197.052C171.069 188.733 177.114 179.092 177.114 179.092C177.114 179.092 187.218 183.44 189.583 192.242C191.947 201.044 185.905 207.372 185.905 207.372Z" fill="#84A955"/>
<path d="M193.473 176.535C193.473 176.535 191.559 180.426 187.039 181.15C182.52 181.873 178.377 177.785 178.377 177.785C178.377 177.785 181.67 173.223 186.327 173.019C190.984 172.815 193.473 176.535 193.473 176.535Z" fill="#84A955"/>
<path d="M170.072 11.3818C170.072 12.4658 170.047 14.3604 169.999 17.0654C169.95 19.7803 169.925 21.4551 169.925 22.0898C169.925 22.3633 169.989 22.6025 170.116 22.8076C170.243 23.0029 170.419 23.1006 170.643 23.1006C170.975 23.1006 171.224 22.9883 171.39 22.7637C171.556 22.5391 171.639 22.2363 171.639 21.8555C171.639 20.918 171.6 19.3408 171.522 17.124C171.444 14.917 171.405 13.3789 171.405 12.5098C172.616 11.8555 173.544 10.9326 174.188 9.74121C174.833 8.5498 175.155 7.21191 175.155 5.72754C175.155 5.02441 175.052 4.33594 174.847 3.66211C174.642 2.98828 174.349 2.37305 173.968 1.81641C173.578 1.25977 173.075 0.820312 172.46 0.498047C171.844 0.166016 171.175 0 170.453 0C169.984 0 169.598 0.224609 169.295 0.673828C169.813 3.125 170.072 6.69434 170.072 11.3818ZM173.617 5.97656C173.617 7.00195 173.431 7.9248 173.06 8.74512C172.699 9.55566 172.123 10.3271 171.332 11.0596C171.322 10.0049 171.263 8.42285 171.156 6.31348C171.058 4.2041 171 2.62207 170.98 1.56738L171.771 2.13867C172.377 2.59766 172.748 2.91504 172.884 3.09082C172.904 3.12012 172.992 3.25684 173.148 3.50098C173.314 3.73535 173.417 3.97461 173.456 4.21875C173.563 4.84375 173.617 5.4248 173.617 5.96191V5.97656Z" fill="white"/>
<path d="M192.682 24.8433C195.236 25.1944 197.118 20.9727 198.327 12.1785C198.34 12.0817 198.347 11.994 198.348 11.9153C198.348 11.8462 198.354 11.7633 198.367 11.6666C198.398 11.444 198.479 11.0314 198.611 10.4285C198.718 9.94041 198.794 9.5319 198.839 9.20296C198.89 8.83532 198.991 8.34657 199.144 7.7367C199.297 7.12683 199.4 6.6284 199.453 6.24141C199.485 6.00922 199.507 5.7757 199.52 5.54085C199.517 5.34336 199.449 5.16142 199.314 4.99503C199.18 4.81896 198.988 4.71364 198.736 4.67906C198.427 4.63651 198.206 4.6653 198.074 4.76544C197.943 4.85591 197.861 5.02207 197.828 5.26394C197.816 5.35101 197.81 5.42907 197.811 5.49813L197.545 7.42822C196.081 18.08 194.643 23.3089 193.23 23.1147C191.973 22.9419 191.444 22.1298 191.643 20.6786C191.733 20.0207 191.81 18.9617 191.873 17.5016C191.919 16.0885 191.991 15.0288 192.088 14.3226L193.199 6.23938C193.256 5.82337 193.217 5.42375 193.083 5.04052C192.948 4.65729 192.765 4.44972 192.532 4.41781C192.291 4.38457 192.049 4.56332 191.808 4.95406L191.679 6.32617C191.557 7.57117 191.449 8.53713 191.354 9.22403C190.962 12.0781 190.627 14.6935 190.35 17.0705C190.186 18.2605 190.104 19.363 190.102 20.3781C190.101 20.9596 190.147 21.4883 190.239 21.9643C190.333 22.4306 190.473 22.8835 190.659 23.3231C190.838 23.742 191.101 24.0838 191.449 24.3485C191.797 24.6132 192.208 24.7781 192.682 24.8433Z" fill="white"/>
<path d="M219.634 11.3899C218.999 12.4998 217.94 14.1961 216.459 16.4787C214.774 19.0897 213.451 21.2596 212.49 22.9882C211.529 24.7169 210.886 26.1595 210.562 27.3161C210.51 27.5042 210.541 27.6804 210.658 27.8448C210.783 28.0119 210.949 28.1244 211.156 28.1823C211.269 28.214 211.458 28.211 211.722 28.1734C211.976 28.1332 212.16 28.1289 212.273 28.1605C212.47 28.2159 212.753 28.3103 213.121 28.4439C213.499 28.5802 213.777 28.6733 213.956 28.7234C214.229 28.7998 214.481 28.8045 214.713 28.7376C214.947 28.6613 215.094 28.515 215.155 28.2987C215.287 27.8285 214.962 27.4841 214.182 27.2654L214.178 27.2795C214.046 27.2426 213.84 27.2001 213.56 27.1519C213.288 27.1063 213.082 27.0638 212.941 27.0243L212.447 26.8859C212.583 26.6197 213.466 25.0772 215.098 22.2585C216.707 19.4843 217.836 17.3919 218.484 15.9814C218.674 15.5579 219.153 14.8096 219.92 13.7366C220.66 12.6865 221.124 11.8276 221.311 11.1599C221.461 10.6239 221.061 10.2229 220.112 9.95679C217.996 9.36397 216.862 9.34027 216.709 9.88567C216.651 10.0925 216.673 10.3017 216.776 10.5131C216.882 10.7151 217.034 10.8438 217.231 10.8991C217.523 10.9808 217.94 11.0672 218.482 11.1583L219.634 11.3899Z" fill="white"/>
<path d="M241.458 19.4306C240.677 20.4437 239.398 21.98 237.62 24.0397C235.595 26.397 233.989 28.3664 232.801 29.9481C231.614 31.5298 230.781 32.8715 230.302 33.9733C230.225 34.1524 230.232 34.3313 230.325 34.51C230.426 34.6926 230.576 34.8267 230.773 34.9123C230.88 34.959 231.067 34.9817 231.334 34.9804C231.592 34.9753 231.775 34.996 231.882 35.0427C232.07 35.1244 232.338 35.2565 232.684 35.439C233.04 35.6254 233.303 35.7556 233.473 35.8295C233.733 35.9423 233.982 35.9814 234.22 35.9466C234.463 35.9029 234.629 35.7781 234.718 35.5721C234.913 35.1242 234.639 34.7388 233.895 34.4159L233.889 34.4293C233.764 34.3749 233.565 34.3046 233.294 34.2187C233.032 34.1366 232.833 34.0664 232.699 34.008L232.229 33.8038C232.399 33.5584 233.484 32.1506 235.484 29.5804C237.456 27.051 238.859 25.1319 239.694 23.8229C239.94 23.4291 240.516 22.7529 241.422 21.7944C242.298 20.8549 242.875 20.0671 243.151 19.4312C243.373 18.9206 243.031 18.4689 242.126 18.0759C240.111 17.2005 238.991 17.0226 238.765 17.5421C238.679 17.7391 238.673 17.9494 238.747 18.1729C238.824 18.3874 238.956 18.5355 239.144 18.6172C239.422 18.7378 239.823 18.8802 240.348 19.0443L241.458 19.4306Z" fill="white"/>
<path d="M254.646 37.6677C254.94 37.1838 255.209 36.8554 255.451 36.6827C255.872 35.9902 256.484 34.9562 257.286 33.581C258.093 32.1973 258.704 31.1634 259.12 30.4792C259.268 30.2372 259.495 29.9296 259.802 29.5562C260.109 29.1829 260.336 28.8753 260.483 28.6333C260.59 28.4581 260.614 28.2673 260.557 28.0609C260.508 27.8597 260.396 27.7057 260.22 27.5992C259.628 27.2389 258.84 27.8682 257.855 29.4869C257.53 30.0209 257.093 30.8524 256.544 31.9813L256.43 32.169C255.598 33.5374 254.384 35.411 252.789 37.7898C251.184 40.1853 249.967 42.0631 249.14 43.4232C249.013 43.6318 248.968 43.8668 249.003 44.1283C249.047 44.3949 249.164 44.5865 249.356 44.7032C249.673 44.896 250.014 44.9943 250.377 44.9982C251.278 45.5462 251.981 46.1106 252.485 46.6914C252.709 46.7932 252.934 46.8272 253.16 46.7934C253.395 46.7646 253.565 46.6626 253.672 46.4874C253.976 45.9868 253.67 45.4574 252.752 44.8992C252.518 44.7572 252.319 44.6421 252.156 44.554L251.665 44.2898C251.089 43.9397 251.159 43.1764 251.875 41.9999C252.225 41.4242 252.657 40.7501 253.173 39.9778C253.688 39.2054 254.116 38.5397 254.456 37.9806L254.646 37.6677Z" fill="white"/>
<path d="M281.603 44.534C281.757 44.3446 281.729 44.0386 281.519 43.6159C281.323 43.1918 281.034 42.7494 280.654 42.2888C280.287 41.8267 279.956 41.4754 279.66 41.2351C279.009 40.7051 278.236 40.9893 277.343 42.0877C277.164 42.3074 276.922 42.6516 276.616 43.1204C276.253 43.6436 276.004 43.9885 275.869 44.1552C275.172 45.0112 274.224 46.1221 273.025 47.488C271.826 48.8538 270.878 49.9648 270.181 50.8208C269.972 51.0784 269.587 51.5899 269.027 52.3556C268.461 53.1288 268.076 53.6403 267.873 53.8903L267.498 54.3974C267.389 54.5475 267.266 54.7059 267.13 54.8726L266.631 55.4862C266.479 55.6893 266.426 55.9237 266.474 56.1895C266.524 56.469 266.655 56.6951 266.867 56.8676L268.833 58.4669C269.113 58.6949 269.394 58.8292 269.676 58.8696C269.965 58.9162 270.199 58.8297 270.378 58.61C270.686 58.2312 270.545 57.8015 269.954 57.3208L268.981 56.567L268.192 55.9817C268.162 55.957 268.501 55.5091 269.21 54.638C269.505 54.2744 270.098 53.5853 270.986 52.5707C271.7 51.7545 272.286 51.0661 272.742 50.5055C273.216 49.9222 273.671 49.3167 274.106 48.6888L274.697 49.1695C274.885 49.3724 275.092 49.5662 275.319 49.7511C275.531 49.9237 275.755 50.0048 275.99 49.9946C276.239 49.9829 276.431 49.8937 276.566 49.7271C276.911 49.3028 276.709 48.7857 275.959 48.1755C275.785 48.0338 275.63 47.9143 275.495 47.8171L275.102 47.5348L275.329 47.1157C275.57 46.8203 276.042 46.2789 276.745 45.4916C277.312 44.8572 277.78 44.3127 278.15 43.8582C278.427 43.5173 278.687 43.1747 278.929 42.8305C279.342 43.2671 279.809 43.8924 280.33 44.7066C280.588 44.791 280.831 44.8251 281.059 44.8086C281.292 44.7846 281.474 44.6931 281.603 44.534Z" fill="white"/>
<path d="M304.412 79.2327C303.526 79.8578 301.965 80.9304 299.727 82.4504C297.48 83.9761 296.098 84.922 295.579 85.2881C295.356 85.4458 295.197 85.6356 295.103 85.8576C295.017 86.0739 295.038 86.2738 295.168 86.4573C295.359 86.7286 295.594 86.8673 295.874 86.8734C296.153 86.8795 296.448 86.7727 296.759 86.5531C297.525 86.0125 298.791 85.071 300.557 83.7288C302.315 82.3922 303.549 81.4733 304.259 80.9721C305.492 81.5841 306.781 81.8099 308.126 81.6494C309.471 81.4889 310.75 80.9806 311.963 80.1246C312.537 79.7191 313.04 79.2383 313.473 78.6822C313.905 78.1261 314.239 77.5319 314.474 76.8998C314.703 76.2596 314.772 75.5953 314.681 74.9069C314.597 74.2127 314.347 73.5705 313.93 72.9801C313.66 72.5972 313.254 72.4115 312.712 72.4233C311.008 74.2597 308.242 76.5295 304.412 79.2327ZM310.872 79.0116C310.035 79.603 309.174 79.9836 308.289 80.1534C307.419 80.3257 306.456 80.2999 305.402 80.076C306.258 79.4598 307.517 78.4996 309.178 77.1954C310.845 75.8992 312.104 74.939 312.954 74.3148L312.943 75.2905C312.918 76.0498 312.872 76.536 312.807 76.7491C312.795 76.782 312.734 76.9326 312.624 77.201C312.529 77.4718 312.392 77.6936 312.215 77.8663C311.767 78.3145 311.323 78.6934 310.884 79.0032L310.872 79.0116Z" fill="white"/>
<path d="M310.21 103.898C310.687 103.651 311.617 103.142 312.999 102.37C314.381 101.599 315.315 101.088 315.8 100.836C316.373 100.54 317.236 100.125 318.39 99.5934C319.67 98.9853 320.526 98.5689 320.96 98.3442C321.827 97.895 322.633 97.4335 323.377 96.9597L324.085 98.3254C324.188 98.5248 324.35 98.6666 324.569 98.7508C324.789 98.835 324.981 98.8344 325.146 98.7491C325.293 98.6727 325.383 98.5163 325.414 98.28C325.433 98.0614 325.343 97.7613 325.146 97.3798L323.501 94.2063C323.048 93.3305 322.617 92.9982 322.209 93.2094C321.941 93.3487 321.79 93.5146 321.758 93.7073C321.726 93.8999 321.782 94.135 321.925 94.4124C321.984 94.5251 322.042 94.627 322.1 94.7178C322.158 94.8087 322.214 94.9062 322.268 95.0102L322.531 95.5175C321.717 96.049 320.786 96.5865 319.737 97.1302C319.217 97.3997 318.217 97.8903 316.738 98.6017C315.402 99.2281 314.4 99.7142 313.732 100.06C313.03 100.424 312.105 100.942 310.957 101.614C309.809 102.285 308.88 102.805 308.169 103.174L307.973 103.242L307.791 103.304L307.4 102.549C307.337 102.45 307.201 102.389 306.991 102.365C306.79 102.338 306.611 102.364 306.455 102.445C306.056 102.652 306.021 103.072 306.348 103.705L306.543 104.016C306.612 104.234 306.862 104.759 307.293 105.591L307.899 106.761C308.021 106.996 308.204 107.159 308.45 107.251C308.709 107.348 308.952 107.338 309.177 107.221C309.619 106.992 309.652 106.513 309.274 105.785C309.189 105.62 309.113 105.484 309.046 105.376C308.979 105.267 308.914 105.153 308.851 105.031L308.669 104.68C308.799 104.613 308.922 104.554 309.04 104.504L310.21 103.898Z" fill="white"/>
<path d="M332.987 119.728C331.714 119.849 329.717 119.962 326.998 120.069C323.894 120.198 321.358 120.368 319.392 120.58C317.425 120.792 315.876 121.099 314.744 121.501C314.56 121.566 314.434 121.694 314.367 121.884C314.303 122.083 314.307 122.283 314.379 122.486C314.418 122.596 314.529 122.749 314.712 122.943C314.892 123.127 315.002 123.275 315.041 123.386C315.109 123.579 315.195 123.864 315.299 124.242C315.405 124.629 315.489 124.91 315.552 125.085C315.646 125.352 315.788 125.561 315.976 125.711C316.174 125.859 316.378 125.895 316.59 125.82C317.05 125.656 317.144 125.193 316.873 124.429L316.859 124.434C316.813 124.305 316.729 124.112 316.607 123.855C316.488 123.607 316.403 123.414 316.354 123.276L316.183 122.793C316.478 122.75 318.248 122.582 321.492 122.29C324.686 122.005 327.046 121.72 328.573 121.437C329.028 121.347 329.915 121.307 331.234 121.315C332.519 121.314 333.488 121.198 334.142 120.965C334.666 120.779 334.763 120.221 334.433 119.292C333.697 117.221 333.062 116.281 332.529 116.471C332.326 116.543 332.169 116.682 332.055 116.888C331.951 117.091 331.933 117.289 332.002 117.482C332.103 117.767 332.273 118.158 332.512 118.653L332.987 119.728Z" fill="white"/>
<path d="M339.003 142.195C337.725 142.141 335.732 141.982 333.024 141.716C329.931 141.422 327.395 141.245 325.419 141.187C323.442 141.129 321.865 141.223 320.689 141.467C320.498 141.507 320.356 141.616 320.263 141.795C320.173 141.983 320.149 142.183 320.193 142.393C320.217 142.508 320.306 142.674 320.461 142.891C320.614 143.098 320.702 143.26 320.726 143.374C320.768 143.575 320.814 143.87 320.865 144.258C320.918 144.656 320.963 144.946 321.001 145.128C321.058 145.405 321.17 145.631 321.336 145.806C321.512 145.979 321.71 146.043 321.93 145.997C322.408 145.897 322.564 145.451 322.399 144.657L322.385 144.66C322.357 144.527 322.3 144.324 322.214 144.053C322.129 143.791 322.072 143.588 322.043 143.445L321.938 142.943C322.237 142.941 324.013 143.015 327.266 143.167C330.47 143.32 332.847 143.359 334.398 143.286C334.861 143.26 335.745 143.34 337.051 143.528C338.324 143.702 339.3 143.719 339.979 143.578C340.524 143.464 340.696 142.925 340.495 141.959C340.048 139.808 339.548 138.79 338.993 138.905C338.783 138.949 338.607 139.065 338.467 139.254C338.336 139.441 338.292 139.634 338.333 139.835C338.395 140.132 338.51 140.542 338.679 141.065L339.003 142.195Z" fill="white"/>
<path d="M327.304 166.048C325.916 166.358 324.905 166.535 324.272 166.578C323.902 166.604 323.651 166.728 323.519 166.953C323.388 167.187 323.338 167.528 323.369 167.976C323.518 168.299 323.812 168.445 324.251 168.415L324.28 168.413C324.592 168.392 325.204 168.257 326.117 168.008C327.078 167.747 327.666 167.609 327.88 167.594C328.046 167.583 328.349 167.508 328.79 167.37C329.23 167.233 329.534 167.158 329.699 167.147C330.976 167.059 333.115 166.712 336.118 166.106C339.081 165.492 341.322 165.133 342.842 165.029C343.086 165.012 343.264 164.902 343.378 164.699C343.501 164.494 343.552 164.246 343.532 163.954L343.463 162.946C343.228 162.805 342.884 162.711 342.431 162.664C341.987 162.616 341.393 162.593 340.65 162.595C340.268 162.592 339.861 162.585 339.43 162.575C334.425 162.252 329.3 161.599 324.055 160.617L323.936 160.596C323.866 160.571 323.816 160.56 323.787 160.562C323.563 160.577 323.38 160.688 323.237 160.893C323.094 161.099 323.031 161.323 323.048 161.567C323.065 161.811 323.176 162.009 323.382 162.161C323.711 162.393 324.372 162.538 325.365 162.598C326.653 162.676 327.59 162.778 328.176 162.905L327.939 165.887L327.304 166.048ZM328.993 165.624C329.002 164.184 329.103 163.292 329.294 162.946C331.368 163.068 334.945 163.411 340.024 163.974C339.143 164.112 338.118 164.29 336.948 164.507C335.391 164.78 334.094 164.991 333.057 165.14C332.029 165.289 331.043 165.396 330.098 165.46C329.65 165.491 329.281 165.545 328.993 165.624Z" fill="white"/>
<path d="M323.993 207.201C324.519 207.31 325.561 207.502 327.12 207.776C328.679 208.05 329.726 208.243 330.261 208.354C330.893 208.485 331.824 208.708 333.055 209.024C334.431 209.36 335.358 209.577 335.836 209.677C336.793 209.876 337.709 210.026 338.585 210.128L338.272 211.634C338.227 211.854 338.262 212.066 338.38 212.27C338.497 212.474 338.646 212.595 338.828 212.632C338.99 212.666 339.159 212.601 339.332 212.438C339.485 212.28 339.605 211.991 339.692 211.57L340.419 208.071C340.62 207.105 340.496 206.576 340.046 206.482C339.75 206.421 339.528 206.454 339.382 206.583C339.235 206.713 339.13 206.93 339.067 207.236C339.041 207.36 339.022 207.476 339.009 207.583C338.997 207.69 338.979 207.801 338.955 207.916L338.839 208.475C337.873 208.374 336.811 208.204 335.654 207.963C335.08 207.844 333.995 207.594 332.399 207.212C330.967 206.855 329.883 206.599 329.147 206.446C328.372 206.286 327.328 206.103 326.014 205.9C324.699 205.697 323.65 205.514 322.866 205.351L322.671 205.28L322.491 205.213L322.664 204.381C322.678 204.264 322.611 204.131 322.463 203.98C322.324 203.832 322.169 203.74 321.997 203.704C321.557 203.612 321.264 203.916 321.119 204.614L321.073 204.978C320.99 205.19 320.852 205.755 320.661 206.673L320.393 207.964C320.34 208.222 320.379 208.465 320.511 208.692C320.651 208.93 320.845 209.075 321.094 209.127C321.582 209.228 321.909 208.877 322.076 208.074C322.114 207.892 322.141 207.738 322.157 207.612C322.173 207.486 322.195 207.356 322.223 207.222L322.303 206.835C322.447 206.865 322.58 206.897 322.702 206.933L323.993 207.201Z" fill="white"/>
<path d="M330.002 230.633C330.471 230.8 330.98 231.09 331.527 231.502C331.813 231.718 332.027 231.949 332.167 232.196C332.307 232.442 332.344 232.673 332.278 232.888C332.099 233.042 331.974 233.22 331.902 233.423C331.836 233.607 331.825 233.784 331.868 233.955C331.92 234.129 332.029 234.245 332.195 234.304C332.508 234.415 332.822 234.361 333.139 234.142C333.461 233.935 333.684 233.657 333.808 233.308C333.962 232.875 333.963 232.435 333.811 231.987C333.665 231.552 333.401 231.157 333.019 230.804C332.292 230.11 331.5 229.611 330.644 229.307C329.88 229.036 329.099 228.887 328.299 228.862C327.667 228.834 327.058 228.856 326.472 228.928C325.896 229.003 325.208 229.116 324.409 229.267L323.86 229.368C323.097 229.501 322.338 229.552 321.582 229.522C320.832 229.504 320.144 229.384 319.518 229.162C318.782 228.9 318.012 228.486 317.207 227.921C316.769 227.609 316.445 227.266 316.236 226.891C316.027 226.517 315.985 226.154 316.109 225.805C316.172 225.63 316.281 225.425 316.437 225.19C316.481 225.123 316.58 224.962 316.733 224.705L316.363 224.216C316.056 224.148 315.769 224.197 315.503 224.361C315.228 224.523 315.001 224.768 314.822 225.098L314.891 225.123C314.69 225.715 314.662 226.306 314.805 226.896C314.957 227.489 315.252 228.013 315.691 228.47C316.544 229.364 317.541 230.014 318.682 230.419C319.4 230.674 320.138 230.843 320.896 230.926C321.651 231.018 322.332 231.027 322.939 230.953C323.853 230.832 325.044 230.644 326.513 230.388C327.059 230.282 327.642 230.245 328.262 230.279C328.879 230.322 329.459 230.44 330.002 230.633Z" fill="white"/>
<path d="M296.411 262.778L295.767 263.004C295.615 263.22 295.552 263.462 295.577 263.731C295.605 264.013 295.714 264.222 295.906 264.357C297.509 265.489 299.927 266.993 303.158 268.867C306.389 270.741 308.802 272.242 310.398 273.368L310.525 273.493L310.616 273.593L310.186 274.025C309.949 274.241 309.772 274.432 309.654 274.6C309.502 274.815 309.433 275.048 309.448 275.298C309.458 275.555 309.558 275.752 309.75 275.887C310.141 276.163 310.516 276.045 310.877 275.535L311.02 275.331C311.052 275.27 311.093 275.203 311.144 275.132C311.425 274.733 311.856 274.206 312.437 273.552C313.033 272.861 313.46 272.332 313.719 271.965C313.849 271.782 313.921 271.569 313.935 271.329C313.95 271.088 313.886 270.917 313.742 270.816C313.574 270.697 313.376 270.682 313.146 270.771C312.765 270.921 312.23 271.458 311.542 272.383C310.616 271.764 308.374 270.343 304.816 268.119C301.266 265.9 299.373 264.755 299.136 264.683L298.324 264.056L296.411 262.778Z" fill="white"/>
<path d="M286.887 284.136C286.745 284.003 286.645 283.902 286.587 283.835L285.644 282.935C283.239 280.688 281.803 279.815 281.336 280.315C281.143 280.522 281.037 280.757 281.019 281.02C281 281.283 281.09 281.508 281.29 281.695L287.015 286.66C290.895 290.017 293.735 292.535 295.533 294.215C295.54 294.208 295.628 294.163 295.798 294.081C296.043 293.976 296.219 293.867 296.326 293.753C296.486 293.581 296.569 293.378 296.575 293.143C296.581 292.922 296.502 292.734 296.338 292.581C295.695 291.981 294.61 291.061 293.082 289.821C291.668 288.674 290.586 287.751 289.837 287.051C289.723 286.944 289.647 286.84 289.609 286.737L290.349 285.945C290.855 285.403 291.264 285.036 291.576 284.846C292.318 285.539 293.218 286.407 294.276 287.449C295.327 288.484 296.224 289.348 296.966 290.041C297.837 290.854 298.489 291.029 298.922 290.565C299.082 290.394 299.151 290.184 299.129 289.936C299.113 289.695 299.02 289.494 298.849 289.334C298.228 288.754 297.38 288.009 296.306 287.099C295.232 286.19 294.384 285.445 293.763 284.865L292.946 284.001L292.558 283.579L292.451 283.479C292.339 283.428 292.172 283.299 291.951 283.092L291.64 282.802C291.54 282.695 291.418 282.575 291.276 282.442C290.99 282.175 290.476 281.674 289.732 280.94C288.981 280.198 288.402 279.638 287.996 279.258C287.053 278.378 286.276 277.759 285.662 277.4C285.027 277.007 284.573 276.957 284.299 277.249C284.12 277.442 284.055 277.662 284.104 277.909C284.155 278.17 284.291 278.403 284.512 278.61C284.919 278.99 285.542 279.532 286.381 280.235C287.228 280.946 287.847 281.484 288.24 281.851L290.755 284.201C290.568 284.373 290.312 284.575 289.988 284.807C289.631 285.061 289.379 285.267 289.232 285.424C289.086 285.581 288.977 285.726 288.905 285.86L288.884 285.84C288.862 285.82 288.81 285.811 288.727 285.814C288.637 285.81 288.582 285.798 288.56 285.778C288.503 285.725 288.367 285.585 288.152 285.357C288.102 285.297 288.037 285.23 287.959 285.156L287.873 285.076L286.887 284.136Z" fill="white"/>
<path d="M277.1 309.008C277.254 309.198 277.56 309.233 278.016 309.113C278.472 309.007 278.963 308.815 279.492 308.536C280.019 308.271 280.43 308.018 280.726 307.777C281.377 307.247 281.256 306.433 280.362 305.335C280.184 305.115 279.896 304.808 279.499 304.413C279.061 303.951 278.774 303.637 278.638 303.471C277.942 302.615 277.047 301.461 275.953 300.008C274.86 298.556 273.965 297.402 273.269 296.546C273.059 296.289 272.637 295.808 272.001 295.104C271.359 294.392 270.937 293.912 270.733 293.662L270.313 293.191C270.188 293.054 270.058 292.901 269.923 292.735L269.423 292.121C269.256 291.93 269.037 291.832 268.767 291.825C268.483 291.816 268.235 291.898 268.023 292.071L266.057 293.67C265.777 293.898 265.588 294.146 265.491 294.414C265.387 294.688 265.424 294.934 265.603 295.154C265.911 295.533 266.36 295.482 266.951 295.001L267.887 294.202L268.621 293.548C268.651 293.524 269.021 293.947 269.729 294.818C270.025 295.182 270.579 295.902 271.392 296.978C272.046 297.843 272.601 298.557 273.057 299.117C273.531 299.7 274.032 300.269 274.558 300.823L273.967 301.304C273.73 301.446 273.498 301.609 273.271 301.794C273.059 301.967 272.934 302.169 272.896 302.401C272.857 302.647 272.905 302.854 273.041 303.02C273.386 303.444 273.933 303.351 274.683 302.741C274.858 302.6 275.006 302.473 275.129 302.36L275.485 302.032L275.849 302.341C276.089 302.636 276.523 303.208 277.151 304.057C277.657 304.741 278.095 305.31 278.465 305.764C278.742 306.105 279.025 306.429 279.312 306.737C278.801 307.052 278.094 307.382 277.191 307.726C277.055 307.962 276.972 308.193 276.942 308.419C276.918 308.653 276.971 308.849 277.1 309.008Z" fill="white"/>
<path d="M241.469 330.667C241.081 330.165 240.639 329.345 240.145 328.208C239.924 327.697 239.732 327.243 239.569 326.845L239.048 325.57C238.526 324.37 238.273 323.543 238.289 323.089L238.248 322.995C238.159 322.789 238.008 322.588 237.795 322.393C237.507 321.73 237.171 320.907 236.787 319.924C236.403 318.941 236.064 318.114 235.773 317.442C235.03 315.731 234.332 314.432 233.68 313.544L232.957 313.459C232.715 313.564 232.535 313.738 232.417 313.981C232.299 314.224 232.286 314.453 232.38 314.668C232.598 315.169 233.011 316.023 233.619 317.228C234.228 318.433 234.641 319.286 234.859 319.788L236.137 322.73C235.852 322.981 235.596 323.237 235.368 323.495C235.13 323.758 234.942 323.999 234.804 324.219C234.656 324.443 234.547 324.682 234.476 324.937C234.391 325.229 234.336 325.471 234.313 325.663C234.284 325.867 234.286 326.105 234.32 326.378C234.368 326.709 234.413 326.971 234.455 327.166C234.5 327.37 234.581 327.628 234.695 327.94C234.855 328.382 235.092 328.965 235.407 329.691C235.843 330.694 236.42 331.508 237.139 332.133C237.515 332.459 237.946 332.655 238.432 332.721C238.919 332.786 239.422 332.706 239.941 332.481L241.15 331.955C241.33 331.878 241.443 331.711 241.492 331.456C241.536 331.213 241.528 330.95 241.469 330.667ZM239.383 330.902C239.124 331.015 238.883 331.061 238.661 331.04C238.439 331.02 238.254 330.962 238.106 330.866C237.949 330.775 237.795 330.629 237.644 330.428C237.51 330.241 237.403 330.069 237.324 329.912C237.24 329.768 237.132 329.543 237 329.239C235.72 326.292 235.593 324.505 236.62 323.878L236.637 323.918L237.738 326.379L239.019 329.256L239.696 330.814C239.499 330.9 239.395 330.929 239.383 330.902Z" fill="white"/>
<path d="M213.158 324.939C213.303 325.456 213.612 326.47 214.086 327.98C214.56 329.49 214.871 330.508 215.018 331.035C215.192 331.656 215.422 332.585 215.708 333.823C216.043 335.2 216.277 336.123 216.408 336.594C216.672 337.534 216.96 338.417 217.272 339.242L215.791 339.657C215.575 339.718 215.403 339.847 215.276 340.045C215.149 340.243 215.11 340.431 215.16 340.609C215.205 340.769 215.34 340.889 215.565 340.968C215.775 341.03 216.087 341.004 216.501 340.888L219.943 339.924C220.892 339.658 221.305 339.304 221.182 338.862C221.1 338.57 220.968 338.389 220.786 338.318C220.604 338.248 220.362 338.254 220.062 338.339C219.939 338.373 219.828 338.409 219.727 338.448C219.626 338.486 219.519 338.521 219.406 338.553L218.856 338.707C218.501 337.802 218.165 336.781 217.846 335.643C217.688 335.079 217.411 334 217.015 332.407C216.674 330.972 216.402 329.892 216.199 329.168C215.985 328.406 215.667 327.395 215.243 326.135C214.818 324.874 214.498 323.858 214.282 323.087L214.255 322.882L214.232 322.691L215.05 322.461C215.16 322.42 215.248 322.299 215.313 322.099C215.382 321.907 215.392 321.727 215.344 321.557C215.223 321.125 214.819 321.005 214.133 321.197L213.788 321.324C213.561 321.347 212.997 321.485 212.094 321.738L210.824 322.094C210.57 322.165 210.373 322.311 210.233 322.533C210.085 322.767 210.046 323.007 210.114 323.251C210.249 323.731 210.711 323.86 211.501 323.638C211.679 323.588 211.828 323.542 211.948 323.498C212.068 323.454 212.193 323.414 212.325 323.377L212.706 323.27C212.745 323.411 212.777 323.544 212.802 323.669L213.158 324.939Z" fill="white"/>
<path d="M193.025 344.018C193.166 342.747 193.461 340.77 193.91 338.086C194.415 335.02 194.764 332.502 194.957 330.534C195.15 328.566 195.164 326.986 195.001 325.796C194.974 325.603 194.875 325.454 194.703 325.349C194.521 325.246 194.324 325.209 194.111 325.238C193.995 325.254 193.823 325.332 193.596 325.472C193.378 325.61 193.212 325.687 193.095 325.703C192.892 325.731 192.595 325.757 192.204 325.782C191.804 325.807 191.511 325.832 191.328 325.858C191.047 325.896 190.814 325.992 190.628 326.146C190.443 326.309 190.366 326.502 190.397 326.725C190.463 327.209 190.898 327.395 191.701 327.285L191.699 327.27C191.835 327.252 192.041 327.209 192.317 327.141C192.584 327.075 192.79 327.032 192.935 327.012L193.443 326.942C193.425 327.24 193.229 329.007 192.856 332.242C192.485 335.428 192.283 337.797 192.25 339.349C192.245 339.813 192.104 340.69 191.828 341.98C191.567 343.238 191.484 344.21 191.579 344.897C191.654 345.449 192.181 345.657 193.158 345.523C195.335 345.224 196.385 344.794 196.308 344.233C196.278 344.02 196.174 343.837 195.996 343.684C195.818 343.541 195.628 343.483 195.425 343.511C195.125 343.552 194.708 343.639 194.174 343.772L193.025 344.018Z" fill="white"/>
<path d="M169.804 345.338C170.117 344.098 170.678 342.179 171.489 339.581C172.407 336.612 173.095 334.166 173.554 332.242C174.013 330.318 174.243 328.756 174.243 327.555C174.243 327.359 174.165 327.198 174.008 327.071C173.842 326.944 173.652 326.881 173.437 326.881C173.32 326.881 173.139 326.935 172.895 327.042C172.661 327.149 172.485 327.203 172.368 327.203C172.163 327.203 171.865 327.188 171.474 327.159C171.074 327.13 170.781 327.115 170.595 327.115C170.312 327.115 170.068 327.179 169.863 327.306C169.658 327.442 169.555 327.623 169.555 327.848C169.555 328.336 169.961 328.58 170.771 328.58V328.565C170.908 328.565 171.118 328.551 171.401 328.521C171.674 328.492 171.884 328.478 172.031 328.478H172.544C172.485 328.771 172.05 330.494 171.24 333.648C170.439 336.754 169.917 339.073 169.672 340.606C169.604 341.065 169.345 341.915 168.896 343.155C168.466 344.366 168.252 345.318 168.252 346.012C168.252 346.568 168.745 346.847 169.731 346.847C171.928 346.847 173.027 346.563 173.027 345.997C173.027 345.782 172.949 345.587 172.793 345.411C172.636 345.245 172.456 345.162 172.251 345.162C171.948 345.162 171.523 345.191 170.976 345.25L169.804 345.338Z" fill="white"/>
<path d="M148.83 329.03C148.809 327.608 148.841 326.582 148.928 325.953C148.978 325.586 148.907 325.315 148.714 325.14C148.512 324.965 148.188 324.846 147.743 324.785C147.397 324.866 147.194 325.124 147.134 325.559L147.13 325.588C147.087 325.898 147.095 326.525 147.152 327.469C147.213 328.463 147.228 329.067 147.199 329.279C147.176 329.444 147.188 329.756 147.233 330.216C147.278 330.675 147.29 330.987 147.267 331.152C147.093 332.419 146.997 334.584 146.98 337.648C146.979 340.674 146.874 342.941 146.666 344.451C146.633 344.693 146.705 344.89 146.881 345.042C147.056 345.204 147.288 345.305 147.579 345.345L148.58 345.483C148.765 345.281 148.927 344.963 149.066 344.529C149.203 344.104 149.346 343.528 149.496 342.799C149.577 342.426 149.666 342.029 149.763 341.609C151.098 336.775 152.779 331.89 154.808 326.954L154.853 326.842C154.892 326.778 154.913 326.732 154.917 326.703C154.947 326.48 154.877 326.278 154.704 326.097C154.532 325.915 154.325 325.808 154.083 325.775C153.841 325.742 153.625 325.81 153.434 325.981C153.14 326.256 152.863 326.874 152.603 327.834C152.264 329.078 151.973 329.975 151.73 330.523L148.859 329.685L148.83 329.03ZM148.902 330.77C150.309 331.072 151.163 331.352 151.462 331.61C150.921 333.616 149.857 337.048 148.273 341.906C148.317 341.015 148.351 339.975 148.376 338.786C148.426 337.206 148.483 335.893 148.548 334.847C148.612 333.811 148.708 332.823 148.837 331.885C148.898 331.44 148.92 331.068 148.902 330.77Z" fill="white"/>
<path d="M106.871 325.374C106.572 326.064 106.122 326.976 105.523 328.111C104.909 329.303 104.474 330.194 104.217 330.786L104.077 331.108L103.755 330.968C103.173 330.715 102.732 330.417 102.434 330.075C101.502 329.67 100.924 329.728 100.698 330.247C100.597 330.48 100.655 330.739 100.871 331.025C101.075 331.316 101.399 331.6 101.842 331.878C102.53 332.305 103.192 332.656 103.828 332.932C104.114 333.057 104.398 333.09 104.679 333.031C104.948 332.977 105.136 332.824 105.245 332.574C105.712 331.499 106.289 330.269 106.975 328.885L107.267 328.213C107.785 327.193 108.705 325.245 110.029 322.37C111.393 319.449 112.523 317.166 113.419 315.522C113.181 315.088 112.914 314.808 112.619 314.679C112.144 314.473 111.731 314.773 111.381 315.579L107.996 323.372C107.712 323.12 107.372 322.909 106.978 322.738C106.718 322.625 106.461 322.604 106.207 322.674C105.944 322.741 105.762 322.891 105.661 323.124C105.451 323.608 105.789 324.042 106.676 324.427L106.958 324.55L107.192 324.635L106.871 325.374Z" fill="white"/>
<path d="M83.0499 312.568C82.5527 313.385 82.141 314.175 81.8149 314.937C81.4787 315.715 81.2438 316.487 81.1103 317.251C80.9684 318.011 80.9392 318.708 81.0225 319.341C81.1207 320.007 81.369 320.632 81.7675 321.217C82.166 321.802 82.7073 322.303 83.3915 322.719C83.6252 322.861 83.8938 322.899 84.1973 322.832C84.4958 322.773 84.8116 322.611 85.1448 322.345C85.5335 322.044 85.8853 321.738 86.2004 321.427C86.5103 321.124 86.8324 320.754 87.1666 320.317C87.5835 319.782 87.9177 319.345 88.1693 319.007C88.4125 318.663 88.6778 318.265 88.9652 317.811C89.0903 317.624 89.234 317.397 89.3963 317.13C89.7784 316.539 90.01 316.177 90.0911 316.044L90.3728 315.581C90.3477 315.565 90.3606 315.516 90.4113 315.433C90.5179 315.257 90.6159 315.106 90.7055 314.977C90.795 314.849 90.9032 314.68 91.03 314.472C91.6744 313.412 92.2809 312.255 92.8494 311C93.4737 309.654 93.8509 308.329 93.9809 307.025C94.055 306.396 93.988 305.83 93.78 305.326C93.572 304.822 93.2385 304.431 92.7796 304.152C90.5017 302.767 87.8684 304.531 84.8798 309.446L83.1641 312.38L83.0499 312.568ZM83.2449 320.761C82.8527 320.523 82.5666 320.194 82.3866 319.776C82.2014 319.367 82.1312 318.918 82.176 318.431C82.2157 317.952 82.354 317.499 82.591 317.072L82.8651 316.621C83.2304 316.021 83.7733 314.996 84.4937 313.548C85.1615 312.206 85.7162 311.172 86.1576 310.446C86.5331 309.828 87.0324 309.092 87.6555 308.236C88.3612 307.283 89.1256 306.467 89.9486 305.79C90.3626 305.448 90.7751 305.23 91.186 305.137C91.5835 305.047 91.9324 305.094 92.2328 305.276C92.4914 305.434 92.6278 305.745 92.6417 306.211C92.6423 306.68 92.525 307.249 92.2899 307.917C91.8212 309.289 91.2295 310.638 90.5148 311.964C89.8459 313.214 89.3236 314.148 88.9481 314.766C88.8264 314.966 88.567 315.345 88.1701 315.904C87.7732 316.463 87.5113 316.847 87.3845 317.055C87.2424 317.289 87.107 317.521 86.9784 317.751C86.8497 317.981 86.6865 318.259 86.4886 318.585C86.2298 319.01 85.9899 319.367 85.7687 319.656C85.5425 319.953 85.2897 320.227 85.0102 320.48C84.4174 321.023 83.829 321.116 83.2449 320.761Z" fill="white"/>
<path d="M73.6773 290.424C73.5258 290.301 73.3545 290.256 73.1636 290.29C72.9727 290.323 72.8094 290.423 72.6739 290.59C72.5876 290.696 72.5202 290.818 72.4718 290.955C72.4173 291.099 72.3669 291.285 72.3208 291.512L72.2282 291.927C72.0107 292.783 71.6991 293.668 71.2935 294.585C70.8818 295.509 70.3105 296.636 69.5797 297.968L68.2201 300.544L67.3019 300.93L66.1746 301.411C65.9111 301.549 65.6176 301.732 65.2939 301.959C64.9702 302.187 64.719 302.411 64.5403 302.63L63.2091 304.267C62.79 304.782 62.5575 305.323 62.5117 305.89C62.4597 306.464 62.5763 307.025 62.8616 307.572C63.1332 308.12 63.5417 308.616 64.0871 309.06C64.6022 309.479 65.1587 309.321 65.7565 308.586C66.8966 307.185 68.5541 305.008 70.7289 302.057C72.979 299.028 74.6371 296.858 75.7033 295.547L76.9925 294.009L76.9631 293.419L76.3154 292.892L75.5456 293.304C74.8796 294.726 73.7115 296.464 72.0414 298.517C71.6469 299.001 71.295 299.426 70.9854 299.791C70.6758 300.156 70.3362 300.566 69.9664 301.021L69.6823 300.79C69.8171 300.345 70.5653 298.845 71.927 296.29L72.4058 295.376C72.9744 294.29 73.4038 293.268 73.6938 292.307C74.0085 291.317 74.003 290.69 73.6773 290.424ZM64.8396 304.63C65.16 304.236 65.5828 303.825 66.108 303.396C66.627 302.975 67.1475 302.636 67.6697 302.381C68.1843 302.12 68.6046 302.022 68.9304 302.085C68.3758 302.767 67.6791 303.654 66.8404 304.747C66.0079 305.832 65.2773 306.761 64.6487 307.534C64.6117 307.579 64.5442 307.631 64.4461 307.69L64.3011 307.799C64.0345 307.569 63.8696 307.315 63.8063 307.037C63.7293 306.761 63.7515 306.47 63.8729 306.166C64.002 305.868 64.1383 305.608 64.282 305.385C64.4195 305.169 64.6054 304.918 64.8396 304.63Z" fill="white"/>
<path d="M38.0228 267.483C37.2353 268.027 35.8787 268.62 33.9532 269.262C32.0947 269.88 30.7506 270.483 29.9209 271.068C29.7773 271.17 29.7027 271.318 29.697 271.513C29.6778 271.706 29.7217 271.878 29.8287 272.03C30.0539 272.349 30.6596 272.352 31.6456 272.038C32.6612 271.716 33.7403 271.289 34.8831 270.757C36.0259 270.225 36.7263 269.922 36.9844 269.848C36.861 269.995 36.5907 270.323 36.1735 270.832C35.7426 271.34 35.2773 271.925 34.7775 272.589C34.2641 273.25 33.8607 273.822 33.5674 274.304C33.0849 275.11 32.9343 275.659 33.1154 275.95L33.9109 276.213L34.0426 276.12C34.3298 275.917 34.8092 275.352 35.4807 274.423C36.0345 273.65 36.7218 272.651 37.5427 271.426C38.3499 270.199 38.8978 269.358 39.1864 268.903L39.8207 268.455C40.0464 268.284 40.5842 267.827 41.4342 267.083C42.2099 266.404 42.8012 265.921 43.2081 265.634C45.6096 263.939 47.0586 263.053 47.5551 262.978C47.8015 262.565 47.8205 262.211 47.6121 261.915C47.2348 261.381 46.4996 261.499 45.4066 262.271L38.0228 267.483Z" fill="white"/>
<path d="M24.4562 246.435C23.6065 246.875 22.8444 247.336 22.17 247.817C21.4782 248.308 20.8766 248.845 20.3653 249.429C19.8495 250.004 19.4625 250.584 19.2045 251.169C18.9427 251.788 18.8299 252.452 18.8663 253.159C18.9028 253.866 19.1052 254.575 19.4736 255.286C19.5994 255.529 19.8093 255.7 20.1034 255.801C20.3888 255.906 20.743 255.931 21.1659 255.877C21.6543 255.822 22.1139 255.743 22.5449 255.641C22.9671 255.543 23.4345 255.395 23.947 255.195C24.5813 254.954 25.0938 254.755 25.4846 254.596C25.8709 254.429 26.3048 254.226 26.7862 253.988C26.9901 253.893 27.2308 253.774 27.5082 253.63C28.1415 253.324 28.5275 253.135 28.6663 253.063L29.1475 252.814C29.134 252.788 29.1706 252.752 29.2573 252.707C29.4394 252.613 29.6021 252.534 29.7453 252.471C29.8885 252.408 30.0685 252.32 30.2853 252.208C31.3865 251.637 32.5058 250.964 33.6434 250.187C34.8763 249.362 35.887 248.425 36.6756 247.379C37.0658 246.88 37.303 246.361 37.3869 245.822C37.4709 245.284 37.3893 244.776 37.1422 244.299C35.9157 241.932 32.7488 242.072 27.6418 244.718L24.6513 246.334L24.4562 246.435ZM20.3656 253.537C20.1544 253.129 20.0805 252.7 20.1439 252.249C20.1986 251.803 20.3716 251.383 20.663 250.99C20.9457 250.602 21.2993 250.287 21.7238 250.045L22.192 249.802C22.8163 249.479 23.8124 248.886 25.1801 248.023C26.4484 247.223 27.4597 246.627 28.214 246.236C28.8556 245.904 29.6649 245.534 30.6418 245.127C31.7404 244.679 32.8171 244.379 33.8719 244.229C34.4036 244.151 34.8692 244.179 35.2686 244.313C35.6549 244.443 35.9288 244.664 36.0906 244.976C36.2299 245.245 36.1845 245.582 35.9545 245.987C35.7113 246.388 35.3156 246.813 34.7674 247.262C33.6539 248.191 32.4475 249.036 31.1481 249.798C29.9268 250.518 28.9953 251.045 28.3537 251.377C28.1456 251.485 27.7268 251.675 27.0974 251.946C26.468 252.217 26.0449 252.409 25.8281 252.521C25.5853 252.647 25.3491 252.775 25.1195 252.905C24.8899 253.035 24.606 253.187 24.2679 253.363C23.8256 253.592 23.4351 253.772 23.0964 253.904C22.7489 254.04 22.3901 254.143 22.0198 254.214C21.2315 254.369 20.6801 254.144 20.3656 253.537Z" fill="white"/>
<path d="M28.8795 225.425C28.0161 222.996 23.4023 223.267 15.0379 226.24C14.9458 226.273 14.8647 226.307 14.7943 226.342C14.7332 226.374 14.6566 226.407 14.5646 226.439C14.3529 226.515 13.9491 226.632 13.353 226.792C12.8706 226.922 12.473 227.043 12.1602 227.154C11.8105 227.278 11.3298 227.413 10.718 227.558C10.1062 227.703 9.61622 227.841 9.24815 227.971C9.0273 228.05 8.80973 228.138 8.59543 228.234C8.42121 228.327 8.29124 228.472 8.20554 228.668C8.11064 228.868 8.1057 229.087 8.19073 229.327C8.29538 229.621 8.42254 229.804 8.5722 229.875C8.71266 229.949 8.89792 229.946 9.12796 229.864C9.21078 229.835 9.28276 229.804 9.3439 229.772L11.1797 229.119C21.3108 225.519 26.6151 224.39 27.0926 225.734C27.5177 226.93 27.0401 227.773 25.6599 228.264C25.0342 228.486 24.0587 228.905 22.7334 229.521C21.4574 230.13 20.4835 230.554 19.8118 230.793L12.1237 233.525C11.728 233.666 11.391 233.884 11.1127 234.18C10.8344 234.476 10.7345 234.734 10.8129 234.955C10.8947 235.185 11.1645 235.317 11.6223 235.351L12.9001 234.835C14.0616 234.37 14.969 234.022 15.6223 233.79C18.3368 232.825 20.8131 231.919 23.0512 231.072C24.183 230.67 25.1999 230.236 26.1019 229.77C26.6187 229.504 27.0671 229.22 27.4473 228.919C27.8183 228.621 28.1561 228.289 28.4608 227.921C28.7504 227.57 28.9326 227.178 29.0075 226.748C29.0824 226.317 29.0398 225.876 28.8795 225.425Z" fill="white"/>
<path d="M16.234 183.831C17.6223 183.521 18.6331 183.344 19.2664 183.301C19.6366 183.275 19.8874 183.151 20.0189 182.926C20.1497 182.692 20.1998 182.351 20.1692 181.903C20.0198 181.58 19.726 181.434 19.2875 181.464L19.2583 181.466C18.9465 181.487 18.3342 181.622 17.4213 181.871C16.4603 182.132 15.8727 182.27 15.6583 182.285C15.4927 182.296 15.1895 182.371 14.7486 182.509C14.3078 182.646 14.0046 182.721 13.8389 182.732C12.5626 182.82 10.4231 183.167 7.42041 183.773C4.45734 184.387 2.21586 184.746 0.695977 184.85C0.452405 184.867 0.273955 184.977 0.160626 185.18C0.037555 185.384 -0.0139842 185.633 0.00600867 185.925L0.0749842 186.933C0.309733 187.074 0.653859 187.168 1.10736 187.215C1.55112 187.263 2.1449 187.286 2.88869 187.284C3.27066 187.287 3.67732 187.294 4.10867 187.303C9.1131 187.627 14.238 188.279 19.4832 189.262L19.6021 189.283C19.6723 189.308 19.7221 189.319 19.7513 189.317C19.9754 189.301 20.1587 189.191 20.3012 188.986C20.4438 188.78 20.5068 188.555 20.4901 188.312C20.4734 188.068 20.362 187.87 20.1558 187.718C19.8267 187.486 19.1658 187.34 18.1731 187.281C16.8855 187.203 15.9486 187.1 15.3624 186.974L15.5989 183.992L16.234 183.831ZM14.5451 184.255C14.5359 185.695 14.4354 186.587 14.2437 186.933C12.17 186.811 8.59337 186.468 3.51382 185.905C4.39509 185.767 5.4205 185.589 6.59006 185.372C8.14733 185.099 9.44454 184.888 10.4817 184.739C11.5091 184.59 12.4953 184.483 13.4404 184.419C13.8886 184.388 14.2568 184.333 14.5451 184.255Z" fill="white"/>
<path d="M17.5944 160.971C17.2044 161.091 16.0262 161.358 14.0598 161.771L12.4953 162.105C10.2807 162.57 8.41173 162.99 6.88842 163.366C5.36577 163.731 3.95737 164.144 2.66322 164.604C1.00767 165.195 0.163898 165.725 0.131909 166.192C0.127244 166.261 0.146603 166.335 0.189986 166.417L0 166.404C0.485875 167.171 1.19647 167.587 2.13178 167.651C2.74558 167.693 3.67403 167.786 4.91712 167.929C6.15046 168.072 7.0789 168.165 7.70245 168.208L17.9657 168.851C19.1835 168.935 19.8148 168.65 19.8594 167.997C19.8761 167.753 19.7979 167.538 19.6248 167.35C19.4523 167.152 19.2394 167.044 18.9861 167.027C18.8594 167.018 18.6895 167.07 18.4762 167.183C18.3345 167.252 18.2636 167.286 18.2636 167.286L3.19629 166.255C4.27984 165.869 6.01034 165.327 8.38779 164.628C10.7659 163.92 12.9811 163.303 15.0335 162.778C17.0858 162.252 18.341 162.005 18.7989 162.037L18.8719 162.042L18.9294 162.06C19.0399 162.019 19.2388 161.974 19.526 161.925C19.8424 161.878 20.0728 161.801 20.2172 161.693C20.3519 161.585 20.4279 161.404 20.4452 161.151C20.4552 161.005 20.3964 160.648 20.2687 160.082C19.9703 159.865 18.8813 159.615 17.0019 159.33C15.1133 159.034 12.964 158.76 10.5537 158.507C8.14417 158.244 6.05833 158.043 4.2962 157.903L2.03099 157.748C1.69973 157.725 1.41706 157.779 1.18298 157.91C0.948896 158.041 0.822525 158.243 0.803865 158.515C0.769877 159.012 1.05004 159.281 1.64435 159.322L2.05555 159.32C2.18288 159.319 2.31474 159.323 2.45114 159.333C8.34557 159.736 13.3933 160.282 17.5944 160.971Z" fill="white"/>
<path d="M3.84018 143.377C4.29913 143.473 5.18591 143.597 6.50054 143.751C7.82473 143.906 8.80235 144.05 9.4334 144.181C10.4565 144.393 11.9929 144.728 14.0426 145.183C16.0828 145.637 17.624 145.972 18.6661 146.189C21.2286 146.722 22.5615 146.739 22.6648 146.242L23.1059 144.119C22.951 143.568 22.749 143.053 22.4998 142.572C22.239 142.099 21.9682 141.699 21.6872 141.371C21.3986 141.032 21.059 140.722 20.6685 140.441C20.2684 140.158 19.8833 139.924 19.5131 139.737C19.1334 139.549 18.6866 139.371 18.1726 139.204C17.6873 139.044 17.2449 138.917 16.8453 138.824C16.4382 138.719 15.9047 138.598 15.245 138.461L13.6243 138.124L12.8558 137.935L12.159 137.76C11.4324 137.609 10.6916 137.55 9.93674 137.583C9.17232 137.613 8.41871 137.736 7.6759 137.951C6.92353 138.163 6.22896 138.458 5.59219 138.834C4.95543 139.211 4.4175 139.687 3.97842 140.264C3.52977 140.839 3.23491 141.466 3.09385 142.145C3.0402 142.403 3.09092 142.663 3.24601 142.925C3.39353 143.175 3.59159 143.326 3.84018 143.377ZM20.7417 144.481C19.2979 144.181 17.1221 143.804 14.2143 143.349C11.3906 142.922 9.21387 142.549 7.68406 142.231C6.42196 141.969 5.41857 141.686 4.6739 141.381C5.4145 139.161 8.73926 138.665 14.6482 139.893C15.0976 139.987 15.436 140.062 15.6635 140.119C16.0324 140.216 16.4643 140.345 16.9591 140.508C17.4559 140.661 17.9058 140.824 18.3086 140.998C18.7668 141.193 19.2132 141.42 19.648 141.68C20.0731 141.938 20.4226 142.2 20.6964 142.467C20.9929 142.768 21.2116 143.107 21.3524 143.486C21.4932 143.864 21.5239 144.244 21.4444 144.627L20.7417 144.481Z" fill="white"/>
<path d="M28.2416 95.8841C28.9352 96.2435 30.0788 96.7536 31.6722 97.4142C33.257 98.0704 34.4483 98.6052 35.246 99.0185L36.9498 99.9014C37.4568 100.175 38.0225 100.474 38.6468 100.797C39.7567 101.372 40.4554 101.382 40.7429 100.827C40.8777 100.567 40.8707 100.294 40.722 100.008C40.5777 99.7135 40.3582 99.4897 40.0634 99.337C39.9247 99.2651 39.7354 99.2165 39.4955 99.1912L38.9353 98.9669C37.7802 98.5004 37.1246 98.2267 36.9685 98.1458L36.9555 98.139C36.6434 97.9773 36.1819 97.7217 35.5711 97.3722L34.1799 96.6183C32.9313 95.9714 31.0509 95.0685 28.5387 93.9098C26.0264 92.751 24.081 91.8145 22.7024 91.1001C22.4856 90.9878 22.2605 90.9976 22.0271 91.1297C21.785 91.2572 21.5989 91.4467 21.4686 91.6982C21.3338 91.9583 21.5516 92.4506 22.1221 93.1752C22.6755 93.8689 23.4629 94.6948 24.4843 95.653C26.0702 97.1347 28.026 98.8685 30.3516 100.854C31.2361 101.61 31.8097 102.116 32.0724 102.373C31.033 102.065 29.298 101.678 26.8675 101.21C24.4284 100.738 22.2169 100.379 20.2332 100.132C18.2407 99.8805 17.1838 99.8718 17.0625 100.106C16.9188 100.383 16.8493 100.655 16.8542 100.922C16.8549 101.175 16.9637 101.358 17.1804 101.47C17.3538 101.56 17.5542 101.598 17.7815 101.584C19.6544 102.554 22.2987 104.095 25.7145 106.206C29.2471 108.388 31.8892 109.933 33.6407 110.841C33.8141 110.931 34.0019 110.929 34.2042 110.836C34.4196 110.738 34.5745 110.599 34.6688 110.417C34.8396 110.087 34.8849 109.819 34.8049 109.613C34.7336 109.411 34.5462 109.231 34.2427 109.074C34.1039 109.002 33.9716 108.939 33.8458 108.885L33.4291 108.702C32.562 108.253 31.4547 107.651 30.1072 106.898C29.0847 106.324 28.1315 105.786 27.2477 105.284C26.3684 104.774 25.2597 104.122 23.9215 103.33L20.9979 101.617C22.1266 101.795 23.5987 102.085 25.4143 102.487C27.2212 102.884 28.91 103.297 30.4805 103.726C32.0469 104.142 33.0903 104.484 33.6105 104.754C33.9573 104.934 34.2865 104.978 34.5979 104.886C34.9093 104.794 35.1527 104.58 35.3279 104.241C35.5031 103.903 34.8499 103.009 33.3683 101.56C32.003 100.225 30.2871 98.6653 28.2207 96.8796C26.2792 95.2137 25.2073 94.2788 25.0049 94.075C25.4472 94.3041 25.9844 94.6045 26.6168 94.9762C27.2578 95.3523 27.7994 95.655 28.2416 95.8841Z" fill="white"/>
<path d="M34.1725 74.261C33.9731 74.1202 33.6697 74.1691 33.2623 74.4075C32.8526 74.6323 32.4309 74.9502 31.9973 75.3613C31.5613 75.7588 31.2335 76.1132 31.0139 76.4243C30.5295 77.1104 30.8658 77.8618 32.0226 78.6784C32.254 78.8417 32.614 79.0599 33.1025 79.3331C33.6493 79.6592 34.0104 79.8843 34.1859 80.0082C35.0875 80.6445 36.2605 81.5144 37.705 82.6177C39.1495 83.7211 40.3226 84.5909 41.2241 85.2273C41.4954 85.4188 42.032 85.7677 42.8341 86.2741C43.6441 86.7861 44.1807 87.135 44.444 87.3209L44.9755 87.6602C45.1327 87.7592 45.2991 87.8706 45.4746 87.9945L46.1209 88.4507C46.3339 88.5891 46.5714 88.6253 46.8333 88.5591C47.1088 88.4906 47.3253 88.3446 47.483 88.1212L48.9444 86.0509C49.1528 85.7557 49.2676 85.4661 49.2887 85.1822C49.3154 84.8903 49.2131 84.6627 48.9817 84.4994C48.5828 84.2178 48.1637 84.3881 47.7245 85.0104L47.0388 86.0326L46.5087 86.8597C46.4862 86.8917 46.0162 86.5838 45.0987 85.9362C44.7158 85.6658 43.9879 85.1222 42.915 84.3051C42.052 83.6481 41.3252 83.1112 40.7349 82.6945C40.1205 82.2608 39.4853 81.8483 38.8292 81.4569L39.2685 80.8346C39.4581 80.6337 39.6374 80.4136 39.8063 80.1743C39.964 79.9509 40.0297 79.7223 40.0034 79.4886C39.9748 79.2413 39.8727 79.0557 39.6972 78.9318C39.2504 78.6164 38.7483 78.8537 38.1907 79.6435C38.0612 79.827 37.9526 79.9894 37.8648 80.1306L37.61 80.5425L37.1763 80.3439C36.8652 80.1243 36.2929 79.6904 35.4594 79.0423C34.7878 78.5205 34.2127 78.0906 33.734 77.7527C33.3749 77.4993 33.0155 77.2634 32.6555 77.0452C33.0629 76.6036 33.6549 76.0951 34.4316 75.5197C34.4982 75.256 34.5156 75.0112 34.4837 74.7855C34.4438 74.5541 34.3401 74.3793 34.1725 74.261Z" fill="white"/>
</svg>
