<svg width="45" height="48" viewBox="0 0 45 48" fill="none" xmlns="http://www.w3.org/2000/svg">
<g filter="url(#filter0_d_36_79)">
<circle cx="14.167" cy="27.4956" r="8.5" fill="white"/>
</g>
<path d="M36.9766 8.13439C36.9766 8.13439 28.2665 6.74916 21.7619 13.4091C15.2573 20.069 17.1897 31.7476 17.1897 31.7476C17.1897 31.7476 28.6318 31.6295 34.4338 24.1312C40.2359 16.6329 36.9766 8.13439 36.9766 8.13439Z" fill="#84A955"/>
<path d="M31.8636 40.7675C31.8636 40.7675 31.5885 36.2649 27.5412 33.7564C23.494 31.2479 17.8775 33.5091 17.8775 33.5091C17.8775 33.5091 19.2064 39.2089 23.5943 41.2736C27.9822 43.3382 31.8636 40.7675 31.8636 40.7675Z" fill="#84A955"/>
<defs>
<filter id="filter0_d_36_79" x="1.66699" y="18.9956" width="25" height="25" filterUnits="userSpaceOnUse" color-interpolation-filters="sRGB">
<feFlood flood-opacity="0" result="BackgroundImageFix"/>
<feColorMatrix in="SourceAlpha" type="matrix" values="0 0 0 0 0 0 0 0 0 0 0 0 0 0 0 0 0 0 127 0" result="hardAlpha"/>
<feOffset dy="4"/>
<feGaussianBlur stdDeviation="2"/>
<feComposite in2="hardAlpha" operator="out"/>
<feColorMatrix type="matrix" values="0 0 0 0 0 0 0 0 0 0 0 0 0 0 0 0 0 0 0.25 0"/>
<feBlend mode="normal" in2="BackgroundImageFix" result="effect1_dropShadow_36_79"/>
<feBlend mode="normal" in="SourceGraphic" in2="effect1_dropShadow_36_79" result="shape"/>
</filter>
</defs>
</svg>
